<svg width="24" height="24" viewBox="0 0 24 24" fill="none" xmlns="http://www.w3.org/2000/svg">
<path d="M12 0C5.37188 0 0 5.37188 0 12C0 18.6281 5.37188 24 12 24C18.6281 24 24 18.6281 24 12C24 5.37188 18.6281 0 12 0ZM12 22.5C6.21094 22.5 1.5 17.7891 1.5 12C1.5 6.21094 6.21094 1.5 12 1.5C17.7891 1.5 22.5 6.21094 22.5 12C22.5 17.7891 17.7891 22.5 12 22.5Z" fill="#E0E3EB"/>
<path d="M10.7502 13.6909L16.2205 8.22062C16.5111 7.92531 16.9874 7.92774 17.2803 8.22024C17.5733 8.51274 17.5733 8.98759 17.2803 9.28056L11.2803 15.2806C11.134 15.4271 10.9424 15.5003 10.7502 15.5003C10.558 15.5003 10.3658 15.4253 10.2196 15.2809L7.21955 12.2809C6.92658 11.9884 6.92705 11.5136 7.21955 11.2206C7.51205 10.9276 7.9869 10.9276 8.27986 11.2206L10.7502 13.6909Z" fill="#E0E3EB"/>
</svg>
