<svg width="24" height="24" viewBox="0 0 24 24" fill="none" xmlns="http://www.w3.org/2000/svg">
<path d="M11.999 0C5.3709 0 -0.000976562 5.37188 -0.000976562 12C-0.000976562 18.6281 5.3709 24 11.999 24C18.6271 24 23.999 18.6281 23.999 12C23.999 5.37188 18.6271 0 11.999 0ZM11.999 22.5C6.20996 22.5 1.49902 17.7891 1.49902 12C1.49902 6.21094 6.20996 1.5 11.999 1.5C17.7881 1.5 22.499 6.21094 22.499 12C22.499 17.7891 17.7881 22.5 11.999 22.5Z" fill="#10B981"/>
<path d="M10.7492 13.6909L16.2195 8.22062C16.5101 7.92531 16.9864 7.92774 17.2794 8.22024C17.5723 8.51274 17.5723 8.98759 17.2794 9.28056L11.2794 15.2806C11.133 15.4271 10.9414 15.5003 10.7492 15.5003C10.557 15.5003 10.3648 15.4253 10.2186 15.2809L7.21857 12.2809C6.92561 11.9884 6.92607 11.5136 7.21857 11.2206C7.51107 10.9277 7.98592 10.9277 8.27889 11.2206L10.7492 13.6909Z" fill="#10B981"/>
</svg>
