<svg width="24" height="24" viewBox="0 0 24 24" fill="none" xmlns="http://www.w3.org/2000/svg">
<path d="M12 0C5.37188 0 0 5.37188 0 12C0 18.6281 5.37188 24 12 24C18.6281 24 24 18.6281 24 12C24 5.37188 18.6281 0 12 0ZM12 22.5C6.21094 22.5 1.5 17.7891 1.5 12C1.5 6.21094 6.21094 1.5 12 1.5C17.7891 1.5 22.5 6.21094 22.5 12C22.5 17.7891 17.7891 22.5 12 22.5Z" fill="#5B80F7"/>
<path d="M13.125 7.125C13.125 7.74656 12.6211 8.25 12 8.25C11.3766 8.25 10.875 7.74844 10.875 7.125C10.875 6.50156 11.3789 6 12 6C12.6211 6 13.125 6.50391 13.125 7.125Z" fill="#5B80F7"/>
<path d="M12.75 16.125H14.25C14.6625 16.125 15 16.4625 15 16.875C15 17.2892 14.6642 17.625 14.25 17.625H9.75C9.3375 17.625 9 17.2875 9 16.875C9 16.4625 9.3375 16.125 9.75 16.125H11.25V11.625H10.5C10.0875 11.625 9.75 11.2875 9.75 10.875C9.75 10.4625 10.0875 10.125 10.5 10.125H12C12.4125 10.125 12.75 10.4625 12.75 10.875V16.125Z" fill="#5B80F7"/>
</svg>
