<svg width="169" height="127" viewBox="0 0 169 127" fill="none" xmlns="http://www.w3.org/2000/svg">
<path d="M153.562 17.3077V103.838L133.069 125.473V32.8195L153.562 17.3077Z" fill="#7192FF"/>
<path d="M153.563 17.3077L133.069 32.8196H22.9541L50.3809 17.3077H153.563Z" fill="#90ABFF"/>
<path d="M133.069 32.8199H22.9536V125.474H133.069V32.8199Z" fill="#B3CAFF"/>
<path d="M133.069 32.8199H22.9536V125.474H133.069V32.8199Z" stroke="#1F347A" stroke-width="2" stroke-linecap="round" stroke-linejoin="round"/>
<path d="M133.069 32.8196L153.563 17.3077H50.3809L22.9541 32.8196" stroke="#1F347A" stroke-width="2" stroke-linecap="round" stroke-linejoin="round"/>
<path d="M153.562 17.3077V103.838L133.069 125.473" stroke="#1F347A" stroke-width="2" stroke-linecap="round" stroke-linejoin="round"/>
<path d="M33.1021 48.7356C33.1043 43.5901 34.0952 38.4927 36.021 33.7193C43.6446 14.7125 65.3456 1 90.9261 1C113.759 1 133.501 11.9244 142.9 27.788C146.647 34.1122 125.393 31.1854 125.393 38.7002L33.1021 48.7356Z" fill="#99EDF6" stroke="#1F347A" stroke-width="2" stroke-linecap="round" stroke-linejoin="round"/>
<path d="M22.9498 32.8175L13.4575 53.639H126.051L132.519 32.8175H22.9498Z" fill="#ECF0FF" stroke="#1F347A" stroke-width="2" stroke-linecap="round" stroke-linejoin="round"/>
<path d="M153.561 17.3118L167.582 31.1555L148.004 48.1188L133.065 32.8175L153.561 17.3118Z" fill="#ECF0FF" stroke="#1F347A" stroke-width="2" stroke-linecap="round" stroke-linejoin="round"/>
<path d="M22.9503 118.217C35.0731 118.217 44.9006 108.413 44.9006 96.3189C44.9006 84.2248 35.0731 74.4206 22.9503 74.4206C10.8275 74.4206 1 84.2248 1 96.3189C1 108.413 10.8275 118.217 22.9503 118.217Z" fill="#F87171" stroke="#1F347A" stroke-width="2" stroke-linecap="round" stroke-linejoin="round"/>
<path d="M16.4507 89.1295L29.8454 103.315" stroke="white" stroke-width="3" stroke-linecap="round" stroke-linejoin="round"/>
<path d="M29.8454 89.1295L16.4507 103.315" stroke="white" stroke-width="3" stroke-linecap="round" stroke-linejoin="round"/>
<path d="M97.1738 107.058L100.681 103.315V117.44" stroke="#1F347A" stroke-width="2" stroke-linecap="round" stroke-linejoin="round"/>
<path d="M100.681 103.315L104.304 106.895" stroke="#1F347A" stroke-width="2" stroke-linecap="round" stroke-linejoin="round"/>
<path d="M113.013 107.058L116.52 103.315V117.44" stroke="#1F347A" stroke-width="2" stroke-linecap="round" stroke-linejoin="round"/>
<path d="M116.52 103.315L120.144 106.895" stroke="#1F347A" stroke-width="2" stroke-linecap="round" stroke-linejoin="round"/>
<path d="M22.95 32.8175L8.43115 42.9882L20.2257 38.7934L22.95 32.8175Z" fill="#ECF0FF" stroke="#1F347A" stroke-width="2" stroke-linecap="round" stroke-linejoin="round"/>
</svg>
