<svg width="56" height="56" viewBox="0 0 56 56" fill="none" xmlns="http://www.w3.org/2000/svg">
<rect x="0.5" y="0.5" width="55" height="55" rx="27.5" fill="#F5F3FF"/>
<path d="M26.2 25.6C26.53 25.6 26.8 25.33 26.8 25C26.8 24.67 26.53 24.4 26.2 24.4H17.8C17.4685 24.4 17.2 24.67 17.2 25C17.2 25.33 17.4685 25.6 17.7663 25.6H26.2ZM39.4 32.8H38.8V27.6888C38.8 26.9733 38.5434 26.2803 38.0781 25.7369L35.4149 22.6296C35.0725 22.2288 34.5737 22 34.0487 22H31.6V20.8C31.6 19.4744 30.5256 18.4 29.2 18.4H20.8C19.4744 18.4 18.4 19.4744 18.4 20.8V22H16.5663C16.2687 22 16 22.27 16 22.5663C16 22.93 16.2687 23.2 16.5663 23.2H24.9663C25.33 23.2 25.6 22.93 25.6 22.6C25.6 22.27 25.33 22 25 22H19.6V20.8C19.6 20.1374 20.1374 19.6 20.8 19.6H29.2C29.8626 19.6 30.4 20.1374 30.4 20.8V29.2C30.4 29.5314 30.6687 29.8 31 29.8C31.3314 29.8 31.6 29.53 31.6 29.2V28H37.6V32.8H37.39C36.895 31.405 35.5638 30.4 34 30.4C32.4363 30.4 31.1058 31.4039 30.61 32.8H25.3788C24.8838 31.405 23.5638 30.4 22 30.4C21.0738 30.4 20.2379 30.7596 19.6 31.3341V28H25C25.33 28 25.6 27.73 25.6 27.4C25.6 27.07 25.33 26.8 25 26.8H16.6C16.2686 26.8 16 27.07 16 27.4C16 27.73 16.2687 28 16.5663 28H18.4V34C18.4 35.9883 20.0118 37.6 22 37.6C23.9883 37.6 25.6 35.9883 25.6 34H30.4C30.4 35.9853 32.0148 37.6 34 37.6C35.9853 37.6 37.6 35.9853 37.6 34H39.4C39.7317 34 40 33.7317 40 33.4C40 33.0684 39.73 32.8 39.4 32.8ZM31.6 26.8V23.2H34.048C34.2238 23.2 34.3896 23.2762 34.5033 23.4092L37.1669 26.5164C37.2438 26.605 37.3075 26.6988 37.3638 26.8H31.6ZM22 36.4C20.6766 36.4 19.6 35.3234 19.6 34C19.6 32.6766 20.6766 31.6 22 31.6C23.3234 31.6 24.4 32.6766 24.4 34C24.4 35.3234 23.3238 36.4 22 36.4ZM34 36.4C32.6763 36.4 31.6 35.3238 31.6 34C31.6 32.6763 32.6763 31.6 34 31.6C35.3238 31.6 36.4 32.6763 36.4 34C36.4 35.3238 35.3238 36.4 34 36.4Z" fill="#33394D"/>
<rect x="0.5" y="0.5" width="55" height="55" rx="27.5" stroke="#E0E3EB"/>
</svg>
