<svg width="24" height="24" viewBox="0 0 24 24" fill="none" xmlns="http://www.w3.org/2000/svg">
<path d="M12 0C5.37188 0 0 5.36138 0 11.9766C0 18.5917 5.37188 23.9531 12 23.9531C18.6281 23.9531 24 18.5917 24 11.9766C24 5.36138 18.6281 0 12 0ZM12 22.4561C6.21094 22.4561 1.5 17.7543 1.5 11.9766C1.5 6.19881 6.21094 1.49707 12 1.49707C17.7891 1.49707 22.5 6.19881 22.5 11.9766C22.5 17.7543 17.7891 22.4561 12 22.4561Z" fill="#DC2626"/>
<path d="M14.633 8.23438C14.945 7.92187 15.4514 7.92187 15.7639 8.23438C16.0788 8.54439 16.0788 9.05441 15.7634 9.36492L13.1293 11.9995L15.7644 14.6331C16.0768 14.9451 16.0768 15.4516 15.7644 15.7641C15.4519 16.0768 14.9458 16.0764 14.6335 15.7641L11.9995 13.1295L9.36595 15.7656C9.05351 16.0783 8.54739 16.0779 8.23515 15.7656C7.9227 15.4536 7.9227 14.9471 8.23515 14.6346L10.8697 11.9995L8.23415 9.36542C7.9217 9.05341 7.9222 8.54689 8.23415 8.23438C8.54609 7.92187 9.05251 7.92187 9.36495 8.23438L11.9995 10.8695L14.633 8.23438Z" fill="#DC2626"/>
</svg>
